<svg xmlns="http://www.w3.org/2000/svg" width="1920" height="1080">
<defs><linearGradient id="b" x2="1" y2="1"><stop stop-color="#0d0910"/><stop offset=".55" stop-color="#3e1632"/><stop offset="1" stop-color="#0c1019"/></linearGradient><radialGradient id="n"><stop stop-color="#ff4fa3" stop-opacity=".65"/><stop offset="1" stop-opacity="0"/></radialGradient></defs>
<rect width="1920" height="1080" fill="url(#b)"/><circle cx="1500" cy="180" r="370" fill="url(#n)"/>
<rect x="250" y="270" width="1420" height="560" rx="60" fill="#15131a" stroke="#594053" stroke-width="5"/>
<g transform="translate(390 350)">
<rect width="330" height="360" rx="30" fill="#221a24"/><ellipse cx="165" cy="120" rx="82" ry="110" fill="#d9b56a"/><ellipse cx="165" cy="120" rx="58" ry="78" fill="#271e28"/><text x="165" y="145" text-anchor="middle" fill="#d9b56a" font-size="58" font-family="serif">$</text>
<rect x="450" y="45" width="540" height="285" rx="24" fill="#0e0d12" stroke="#d6b44a" stroke-width="3"/>
<g fill="#ff4fa3"><rect x="500" y="95" width="360" height="18" rx="9"/><rect x="500" y="145" width="430" height="18" rx="9"/><rect x="500" y="195" width="260" height="18" rx="9"/></g>
<g fill="#d6b44a"><circle cx="1090" cy="90" r="56"/><circle cx="1160" cy="155" r="56"/><circle cx="1060" cy="220" r="56"/></g>
</g>
<text x="960" y="920" text-anchor="middle" fill="#d6b44a" font-family="Arial" font-size="36" letter-spacing="12">VIP ACCOUNTING</text>
</svg>